<svg version="1.1" id="Layer_1" xmlns="http://www.w3.org/2000/svg" xmlns:xlink="http://www.w3.org/1999/xlink" x="0px" y="0px"
	 width="100%" viewBox="0 0 500 500" enable-background="new 0 0 500 500" xml:space="preserve">
<path fill="#000000" opacity="1.000000" stroke="none" 
	d="
M273.000000,501.000000 
	C182.000015,501.000000 91.500046,501.000000 1.000049,501.000000 
	C1.000032,334.333405 1.000032,167.666794 1.000016,1.000138 
	C167.666565,1.000092 334.333130,1.000092 500.999756,1.000046 
	C500.999847,167.666519 500.999847,334.333038 500.999939,500.999786 
	C425.166656,501.000000 349.333344,501.000000 273.000000,501.000000 
M171.788452,250.554077 
	C171.599930,250.266739 171.342300,250.069824 170.987900,249.462509 
	C170.933167,249.304535 170.878418,249.146545 170.924057,248.307266 
	C170.277222,246.882172 169.630402,245.457062 169.005981,244.009674 
	C169.005981,244.009674 168.975311,244.009827 168.977798,243.365433 
	C168.643707,242.611847 168.309601,241.858261 167.911362,240.341644 
	C164.808273,232.299377 164.786499,232.172363 158.206985,233.300522 
	C156.819656,233.538391 155.081436,234.813278 154.488983,236.073135 
	C151.835175,241.716446 149.484756,247.505646 147.126633,253.283752 
	C145.134796,258.164368 143.282867,263.102051 141.061401,268.804077 
	C146.137161,268.804077 149.930801,268.934265 153.704910,268.720062 
	C154.755646,268.660400 156.446976,267.723267 156.606339,266.937592 
	C156.853241,265.720337 156.266037,264.152527 155.585495,262.996490 
	C155.176361,262.301483 153.919037,262.105835 151.403976,260.899994 
	C154.231567,259.460999 155.818802,258.188263 157.583557,257.854767 
	C160.955612,257.217499 164.209396,257.505310 164.292923,262.183014 
	C159.696777,263.281006 161.934372,266.211395 162.223206,268.335571 
	C176.950256,268.335571 191.355484,268.335571 206.155380,268.335571 
	C206.469238,264.676636 206.788742,260.951721 207.108246,257.226837 
	C206.674149,256.784271 206.240051,256.341736 205.805969,255.899170 
	C203.559601,257.259857 201.106949,258.375122 199.120346,260.044861 
	C196.763718,262.025635 193.434952,263.797913 192.716721,260.192871 
	C191.543488,254.304047 192.283630,248.029373 192.292007,241.917587 
	C192.292770,241.360855 192.755112,240.392258 193.146759,240.311493 
	C197.767883,239.358551 195.335159,236.090805 195.774841,233.462463 
	C189.854553,233.462463 184.298676,233.462463 178.196503,233.462463 
	C178.660583,235.675156 178.901093,237.576157 179.476471,239.369736 
	C180.158142,241.494705 181.577545,243.466599 181.866776,245.613983 
	C182.284515,248.715591 181.775436,251.930969 182.022934,255.069321 
	C182.342072,259.115936 182.177048,262.698364 177.205597,264.003418 
	C176.461990,262.786499 175.693573,261.528931 175.026840,260.108673 
	C175.026840,260.108673 174.864380,260.006531 174.915131,259.410675 
	C174.588547,258.693024 174.261963,257.975372 173.864243,256.606964 
	C173.576859,256.065674 173.289474,255.524384 172.938812,254.292862 
	C172.606064,253.242813 172.273315,252.192749 171.964523,251.050217 
	C171.964523,251.050217 171.869400,251.041306 171.788452,250.554077 
M246.029022,285.532349 
	C246.280548,285.766907 246.532074,286.001465 246.979706,286.017975 
	C246.979706,286.017975 246.766373,286.219238 246.993942,286.841614 
	C250.200424,289.814514 253.015472,287.556091 256.210785,286.792816 
	C257.373718,287.144012 258.536652,287.495178 259.487640,287.782349 
	C260.498627,284.547516 261.361755,281.785767 262.441742,278.330200 
	C260.334229,278.608398 257.624725,278.966095 254.293076,279.405914 
	C254.791061,279.931488 254.367538,279.484528 253.635239,278.444611 
	C251.496429,278.660706 249.357635,278.876801 247.080200,279.083069 
	C247.080200,279.083069 247.087219,279.221863 246.521057,279.566101 
	C246.356674,281.362000 246.192291,283.157898 245.992661,284.983551 
	C245.992661,284.983551 246.038620,284.983765 246.029022,285.532349 
M227.968781,265.817474 
	C228.015076,266.631378 228.061356,267.445282 228.790054,268.697876 
	C234.573532,268.697876 240.356995,268.697876 247.227478,268.697876 
	C246.437759,266.480499 246.309677,263.891357 245.166504,263.314758 
	C241.188171,261.308167 241.762772,258.356110 242.575775,254.906921 
	C244.158524,255.231903 245.705154,255.631210 247.276901,255.850250 
	C249.018631,256.093018 250.783295,256.171051 252.740692,256.338104 
	C252.740692,253.310883 252.740692,250.601227 252.740692,247.484055 
	C249.523315,247.708115 246.077972,248.925934 243.860062,247.776123 
	C242.245117,246.938889 242.250336,242.976440 241.533249,240.407303 
	C242.009399,240.049835 242.485550,239.692383 242.961700,239.334930 
	C247.623718,241.309845 252.285721,243.284744 256.947723,245.259659 
	C257.358704,244.801605 257.769684,244.343567 258.180664,243.885513 
	C257.702393,240.337219 257.224091,236.788910 256.738556,233.186691 
	C248.076019,233.186691 240.107773,233.061920 232.149200,233.283905 
	C230.396118,233.332779 228.677338,234.611862 226.519012,234.595367 
	C225.483490,234.122208 224.460052,233.274353 223.410355,233.240494 
	C218.776337,233.090988 214.134766,233.175873 207.969131,233.175873 
	C209.017944,235.895935 210.349930,237.948776 210.541351,240.102982 
	C211.180298,247.292770 211.410614,254.518860 211.797516,261.731049 
	C207.228485,262.640381 209.647842,265.898865 209.220642,268.572693 
	C214.985016,268.572693 220.391693,268.572693 225.520294,268.572693 
	C226.412552,267.283539 227.202148,266.142670 227.968781,265.817474 
M91.549911,289.678223 
	C99.872543,289.678894 108.195549,289.630249 116.517685,289.694824 
	C124.007057,289.752930 129.317871,284.772461 129.416519,277.180756 
	C129.535477,268.027008 129.511902,258.870117 129.411819,249.716141 
	C129.394684,248.147263 129.202072,245.863602 128.204742,245.152618 
	C124.814674,242.735794 125.655319,240.073776 126.875641,237.104996 
	C127.750427,234.976837 128.658661,232.842026 129.275864,230.633011 
	C130.284042,227.024689 132.001572,223.276840 131.710388,219.728119 
	C131.340530,215.220779 129.468842,210.774094 127.799355,206.474167 
	C127.299255,205.186111 124.763039,203.348495 124.087341,203.676117 
	C117.360924,206.937302 109.374886,208.675751 106.585739,217.163422 
	C105.425972,220.692719 103.840111,224.081985 102.062019,228.492325 
	C101.126640,226.389526 100.489395,225.160797 100.022194,223.870529 
	C98.224754,218.906509 96.516487,213.910110 94.706665,208.950699 
	C93.432701,205.459732 90.855949,202.613220 87.199127,203.525238 
	C81.804993,204.870544 76.721184,207.444351 71.483826,209.438812 
	C66.892235,211.187378 66.250374,215.058975 67.449890,218.803497 
	C69.992340,226.740204 73.197899,234.464508 76.131538,242.275909 
	C75.648384,242.195511 75.165222,242.115128 74.682060,242.034729 
	C73.906631,244.739639 72.546524,247.426544 72.462494,250.152786 
	C72.180588,259.299347 72.124657,268.469208 72.494629,277.609406 
	C72.603745,280.305115 73.960228,283.239624 75.527351,285.529236 
	C79.245537,290.961670 85.200462,289.526611 91.549911,289.678223 
M305.849548,240.013062 
	C309.675354,241.793320 313.501160,243.573578 318.512634,245.905563 
	C318.117981,240.655243 317.852478,237.122803 317.572327,233.395721 
	C308.100098,233.395721 298.983612,233.395721 289.662354,233.395721 
	C289.142883,235.028793 288.627960,236.647614 288.051422,238.460083 
	C292.310791,239.445694 293.319794,242.362656 293.163635,246.278854 
	C292.964935,251.261597 293.115509,256.258270 293.115509,261.747620 
	C287.167419,261.626373 289.472839,265.515778 289.377899,268.059387 
	C304.783356,268.059387 319.766846,268.059387 335.560852,268.059387 
	C334.813110,266.200165 334.055054,264.415405 333.379700,262.599915 
	C332.946228,261.434540 332.634583,260.223877 332.268280,259.033508 
	C335.260834,258.652740 338.253082,258.079132 341.246246,258.074188 
	C341.767242,258.073334 342.309845,260.465302 342.779053,261.774841 
	C342.813263,261.870270 342.207916,262.102173 342.105042,262.354309 
	C341.335327,264.240875 340.617249,266.148499 339.720490,268.470337 
	C346.013367,268.470337 350.770477,268.470337 356.803925,268.470337 
	C352.143372,256.024200 347.750610,244.293259 343.316101,232.450745 
	C339.691528,232.790497 336.588684,233.081345 333.566101,233.364670 
	C329.390900,247.349899 322.417297,261.867950 318.814301,263.644104 
	C318.814301,261.528687 318.814301,259.572784 318.814301,256.667480 
	C316.553345,257.483917 314.081207,257.594635 313.274628,258.810394 
	C310.549927,262.917297 307.113220,262.282928 303.594421,261.539978 
	C303.594421,259.089417 303.594421,256.994507 303.594421,254.721512 
	C307.106598,254.961075 310.302124,255.179016 313.538818,255.399780 
	C313.538818,252.693878 313.538818,249.962250 313.538818,246.987396 
	C310.052460,247.154114 306.837219,247.307861 302.423462,247.518936 
	C303.457550,244.435837 304.196991,242.231171 305.849548,240.013062 
M424.951477,264.010040 
	C424.952637,257.348785 424.843842,250.684265 425.041290,244.028839 
	C425.084381,242.576401 426.424194,241.207321 426.800568,239.707916 
	C427.222321,238.027863 427.553253,236.183167 427.248077,234.535217 
	C427.132782,233.912567 425.144104,233.319580 423.984161,233.266693 
	C420.404114,233.103455 416.811890,233.207108 413.129395,233.207108 
	C412.069458,239.598526 420.268341,243.690948 416.141113,250.049774 
	C413.295898,246.325592 410.213654,242.879166 407.808899,239.011505 
	C403.775452,232.524155 398.059265,232.357468 390.622833,233.895691 
	C395.789368,245.430252 395.360016,256.953583 390.342651,268.448914 
	C396.098175,268.448914 400.649597,268.448914 405.725555,268.448914 
	C405.352570,266.282196 405.657074,263.614227 404.653839,262.963989 
	C399.315887,259.504211 403.221466,254.797974 402.282898,250.721069 
	C407.078918,255.928085 411.164429,261.435730 415.511780,266.728333 
	C416.635559,268.096466 419.059906,269.952332 420.046356,269.545624 
	C421.959869,268.756683 423.277130,266.521545 424.951477,264.010040 
M360.990021,260.092255 
	C359.718140,261.281281 358.446259,262.470306 356.867767,263.945923 
	C357.226746,265.365479 357.654755,267.057922 358.041260,268.586273 
	C363.544769,268.586273 368.641052,268.586273 374.365601,268.586273 
	C374.022552,266.593475 373.954834,264.832947 373.392853,263.247681 
	C372.488098,260.695404 371.257233,258.258728 370.164124,255.773239 
	C370.795074,255.487701 371.425995,255.202148 372.056946,254.916595 
	C372.703400,256.086548 373.455444,257.211212 373.979675,258.433594 
	C378.382111,268.699219 379.710968,269.574615 390.765686,268.219482 
	C387.974152,262.968719 385.399597,258.126129 382.688080,253.025848 
	C388.645142,250.617661 388.371979,245.743118 387.986053,240.946976 
	C387.593140,236.064850 383.952789,234.660080 379.874634,233.590164 
	C372.141205,231.561340 364.631836,232.837112 356.555176,234.538986 
	C358.121338,238.650681 360.160553,242.319611 360.831818,246.223709 
	C361.554169,250.424805 360.993652,254.846451 360.990021,260.092255 
M325.001434,280.087891 
	C323.994019,281.623627 322.986603,283.159332 321.412231,285.559326 
	C359.708160,285.559326 396.677521,285.559326 433.805054,285.559326 
	C433.805054,283.678467 433.805054,282.087555 433.805054,280.094147 
	C397.709442,280.094147 361.808838,280.094147 325.001434,280.087891 
M276.466125,268.808075 
	C279.896027,268.808075 283.325958,268.808075 286.692596,268.808075 
	C287.063934,264.468628 287.378815,260.789429 287.845093,255.340698 
	C284.435303,257.044952 282.291473,258.060669 280.201202,259.176666 
	C278.068024,260.315582 275.987396,261.552948 272.972412,263.264618 
	C272.972412,254.540222 272.972412,247.594238 272.972412,240.428940 
	C277.989838,239.772461 277.219086,236.739090 275.886505,233.562592 
	C270.254425,233.562592 264.848389,233.562592 259.191803,233.562592 
	C259.776794,236.298492 257.203857,239.716522 261.870514,240.454651 
	C261.796936,247.600052 261.723328,254.745438 261.649750,261.890839 
	C256.861938,263.753052 259.928009,266.345276 260.550110,268.808319 
	C265.833923,268.808319 270.656036,268.808319 276.466125,268.808075 
M233.910904,279.598297 
	C233.070007,281.126373 232.229111,282.654419 230.912262,285.047363 
	C230.526672,281.932495 230.259674,279.775452 229.953934,277.305664 
	C228.916168,277.611237 228.248138,278.058014 227.753906,277.912903 
	C224.532898,276.967194 221.395554,277.365417 220.525330,280.756653 
	C220.030319,282.685791 221.037094,285.851532 222.514252,287.243713 
	C224.965729,289.554169 227.967041,288.394836 230.589035,286.435760 
	C231.257751,285.936127 232.595474,286.047699 233.542328,286.256714 
	C236.643555,286.941284 239.706314,287.800079 242.758423,288.585388 
	C242.758423,282.867920 242.758423,278.518158 242.758423,275.006561 
	C240.374969,275.966095 238.578583,276.619995 236.847122,277.415253 
	C235.964981,277.820465 235.199539,278.479706 233.910904,279.598297 
M169.933899,288.213074 
	C171.828781,287.951050 173.723663,287.689056 175.217377,287.482513 
	C175.217377,282.716736 175.217377,278.446991 175.217377,274.177246 
	C174.831070,274.134369 174.444763,274.091492 174.058456,274.048615 
	C173.608597,275.297180 173.158722,276.545746 172.708847,277.794312 
	C168.697021,275.577545 165.136810,283.073792 160.621948,278.279755 
	C159.883057,277.495178 155.182022,278.752594 154.309906,280.238647 
	C153.359970,281.857300 153.947006,285.523254 155.283188,287.073120 
	C157.350250,289.470703 160.441925,288.741760 162.633591,286.335266 
	C163.452087,285.436554 163.887741,284.189178 164.265945,283.514587 
	C166.018585,285.109467 167.624008,286.570404 169.933899,288.213074 
M214.319504,286.910461 
	C215.021194,286.609802 215.723999,286.311737 216.423599,286.006287 
	C216.565399,285.944336 216.694901,285.854279 216.830078,285.777191 
	C216.726807,285.633759 216.623520,285.490356 216.520248,285.346954 
	C215.452438,285.924652 214.384628,286.502350 213.383820,287.043793 
	C212.165222,285.592773 211.027817,284.238464 209.937469,282.940125 
	C211.020752,281.558563 211.897980,280.439758 212.775223,279.320953 
	C212.532806,279.012207 212.290405,278.703461 212.047989,278.394714 
	C210.264465,279.782867 208.480942,281.171021 206.209473,282.938995 
	C205.385666,281.207947 204.529449,279.182739 203.461334,277.276276 
	C203.037491,276.519745 202.170212,275.582092 201.455994,275.539185 
	C200.748474,275.496674 199.585449,276.321991 199.304367,277.035400 
	C197.950882,280.470703 196.827942,283.996857 195.623199,287.490753 
	C195.937546,288.216125 196.251892,288.941498 196.566223,289.666870 
	C199.012955,281.122650 205.062622,290.608276 207.679733,286.068512 
	C210.015625,286.578766 212.069717,287.027466 214.319504,286.910461 
M188.639984,283.339539 
	C188.185150,279.889221 186.658554,276.789307 182.847458,277.650360 
	C180.930878,278.083313 178.604004,280.911133 178.307449,282.927277 
	C178.083572,284.449463 180.449768,287.250793 182.264694,287.974701 
	C185.376266,289.215820 187.490921,287.170776 188.639984,283.339539 
M278.917023,287.311218 
	C278.536041,288.819855 278.155090,290.328461 277.723602,292.037170 
	C281.674438,290.844330 285.824371,280.929352 283.923584,276.868286 
	C282.757172,279.134033 281.756989,281.076843 280.694855,283.140015 
	C277.844147,277.460541 277.844147,277.460541 275.158997,278.728729 
	C276.404968,281.349915 277.648895,283.966797 278.917023,287.311218 
M142.009506,283.281830 
	C143.587036,285.130249 144.862961,287.666901 146.865891,288.544556 
	C147.909607,289.001923 150.234604,286.535400 151.980850,285.389587 
	C151.669052,284.868225 151.357254,284.346863 151.045456,283.825470 
	C149.626663,284.504333 148.207886,285.183167 146.789093,285.862030 
	C146.219437,284.130676 145.649780,282.399292 145.080139,280.667938 
	C147.004868,280.990570 148.929596,281.313202 150.854340,281.635834 
	C151.095001,281.306427 151.335663,280.976990 151.576309,280.647583 
	C149.723862,279.608795 147.949448,277.914520 146.000931,277.682526 
	C142.962631,277.320801 141.943146,279.685974 142.009506,283.281830 
M271.573944,284.079956 
	C271.954315,285.320587 272.334686,286.561218 272.715057,287.801849 
	C273.435974,287.568024 274.156921,287.334229 274.877869,287.100433 
	C273.841644,284.097534 273.184204,280.859924 271.552063,278.226318 
	C271.021271,277.369873 267.943756,278.091766 266.157990,278.091766 
	C268.404907,280.220764 269.991699,281.724274 271.573944,284.079956 
z"/>
<path fill="#E9EDF3" opacity="1.000000" stroke="none" 
	d="
M91.061157,289.678436 
	C85.200462,289.526611 79.245537,290.961670 75.527351,285.529236 
	C73.960228,283.239624 72.603745,280.305115 72.494629,277.609406 
	C72.124657,268.469208 72.180588,259.299347 72.462494,250.152786 
	C72.546524,247.426544 73.906631,244.739639 74.682060,242.034729 
	C75.165222,242.115128 75.648384,242.195511 76.131538,242.275909 
	C73.197899,234.464508 69.992340,226.740204 67.449890,218.803497 
	C66.250374,215.058975 66.892235,211.187378 71.483826,209.438812 
	C76.721184,207.444351 81.804993,204.870544 87.199127,203.525238 
	C90.855949,202.613220 93.432701,205.459732 94.706665,208.950699 
	C96.516487,213.910110 98.224754,218.906509 100.022194,223.870529 
	C100.489395,225.160797 101.126640,226.389526 102.062019,228.492325 
	C103.840111,224.081985 105.425972,220.692719 106.585739,217.163422 
	C109.374886,208.675751 117.360924,206.937302 124.087341,203.676117 
	C124.763039,203.348495 127.299255,205.186111 127.799355,206.474167 
	C129.468842,210.774094 131.340530,215.220779 131.710388,219.728119 
	C132.001572,223.276840 130.284042,227.024689 129.275864,230.633011 
	C128.658661,232.842026 127.750427,234.976837 126.875641,237.104996 
	C125.655319,240.073776 124.814674,242.735794 128.204742,245.152618 
	C129.202072,245.863602 129.394684,248.147263 129.411819,249.716141 
	C129.511902,258.870117 129.535477,268.027008 129.416519,277.180756 
	C129.317871,284.772461 124.007057,289.752930 116.517685,289.694824 
	C108.195549,289.630249 99.872543,289.678894 91.061157,289.678436 
M83.309341,283.911499 
	C94.111229,283.957977 104.913506,284.075378 115.714798,284.015106 
	C119.860306,283.991974 122.944389,281.864807 123.065773,277.576782 
	C123.341705,267.828339 123.152748,258.066772 123.152748,247.925186 
	C108.797264,247.925186 94.873940,247.827545 80.959030,248.124496 
	C79.929558,248.146484 78.159813,250.976303 78.098999,252.553421 
	C77.798172,260.354858 77.576744,268.202881 78.167427,275.970612 
	C78.363319,278.546692 81.064003,280.932281 83.309341,283.911499 
M89.526718,242.310425 
	C97.164757,242.287033 97.164757,242.287033 97.443176,239.569687 
	C94.564491,238.912125 91.753136,238.269928 88.941780,237.627731 
	C88.992302,237.113510 89.042831,236.599289 89.093353,236.085068 
	C90.895088,234.967575 92.784988,233.964615 94.456467,232.677902 
	C95.154015,232.140915 95.386948,231.000381 95.831131,230.134277 
	C94.873329,229.861267 93.883720,229.289536 92.965393,229.387299 
	C91.682716,229.523849 90.308914,229.934677 89.228683,230.625946 
	C86.254265,232.529343 84.330879,231.801956 82.773903,227.770981 
	C84.710274,226.703186 86.657173,225.501328 88.711456,224.525574 
	C92.162018,222.886627 92.190758,222.947128 91.367798,219.541779 
	C89.915634,219.890640 88.461380,220.512924 87.011963,220.501846 
	C85.852600,220.492996 84.227242,220.017212 83.690552,219.182007 
	C83.251663,218.498993 83.877869,216.832001 84.473923,215.877167 
	C84.961670,215.095840 86.225670,214.843124 86.919083,214.134460 
	C87.706421,213.329819 88.241852,212.278717 88.886803,211.334747 
	C87.778267,211.143265 86.558472,210.557816 85.581902,210.833618 
	C82.560410,211.686905 79.679291,213.042053 76.653229,213.872925 
	C73.665344,214.693314 73.128510,216.159485 74.216881,218.957550 
	C76.554855,224.968216 78.979919,230.978699 80.743927,237.167526 
	C81.997017,241.563858 84.323830,243.115524 89.526718,242.310425 
M113.693466,226.256577 
	C114.407310,224.297180 115.121162,222.337784 115.892326,220.221085 
	C114.744484,219.752686 113.593033,219.282806 112.299019,218.754761 
	C109.472847,226.599899 106.743919,234.175095 104.014984,241.750290 
	C104.274040,242.088028 104.533096,242.425766 104.792152,242.763504 
	C106.190910,241.866409 108.326889,241.277359 108.853905,240.016037 
	C110.625031,235.777115 111.822914,231.298676 113.693466,226.256577 
M118.205467,231.658340 
	C117.050346,235.022949 115.895218,238.387558 114.692230,241.891586 
	C119.272499,241.636841 123.744476,232.932404 124.831894,221.484009 
	C122.720863,223.358429 121.297432,224.161865 120.569412,225.380676 
	C119.570435,227.053131 119.098671,229.040482 118.205467,231.658340 
z"/>
<path fill="#ECF1F5" opacity="1.000000" stroke="none" 
	d="
M305.393005,240.019775 
	C304.196991,242.231171 303.457550,244.435837 302.423462,247.518936 
	C306.837219,247.307861 310.052460,247.154114 313.538818,246.987396 
	C313.538818,249.962250 313.538818,252.693878 313.538818,255.399780 
	C310.302124,255.179016 307.106598,254.961075 303.594421,254.721512 
	C303.594421,256.994507 303.594421,259.089417 303.594421,261.539978 
	C307.113220,262.282928 310.549927,262.917297 313.274628,258.810394 
	C314.081207,257.594635 316.553345,257.483917 318.814301,256.667480 
	C318.814301,259.572784 318.814301,261.528687 318.814301,263.644104 
	C322.417297,261.867950 329.390900,247.349899 333.566101,233.364670 
	C336.588684,233.081345 339.691528,232.790497 343.316101,232.450745 
	C347.750610,244.293259 352.143372,256.024200 356.803925,268.470337 
	C350.770477,268.470337 346.013367,268.470337 339.720490,268.470337 
	C340.617249,266.148499 341.335327,264.240875 342.105042,262.354309 
	C342.207916,262.102173 342.813263,261.870270 342.779053,261.774841 
	C342.309845,260.465302 341.767242,258.073334 341.246246,258.074188 
	C338.253082,258.079132 335.260834,258.652740 332.268311,259.033508 
	C332.634583,260.223877 332.946228,261.434540 333.379700,262.599915 
	C334.055054,264.415405 334.813110,266.200165 335.560852,268.059387 
	C319.766846,268.059387 304.783356,268.059387 289.377899,268.059387 
	C289.472839,265.515778 287.167419,261.626373 293.115509,261.747620 
	C293.115509,256.258270 292.964935,251.261597 293.163635,246.278854 
	C293.319794,242.362656 292.310791,239.445694 288.051422,238.460083 
	C288.627960,236.647614 289.142883,235.028793 289.662354,233.395721 
	C298.983612,233.395721 308.100098,233.395721 317.572327,233.395721 
	C317.852478,237.122803 318.117981,240.655243 318.512634,245.905563 
	C313.501160,243.573578 309.675354,241.793320 305.393005,240.019775 
z"/>
<path fill="#EFF2F6" opacity="1.000000" stroke="none" 
	d="
M424.896484,264.447845 
	C423.277130,266.521545 421.959869,268.756683 420.046356,269.545624 
	C419.059906,269.952332 416.635559,268.096466 415.511780,266.728333 
	C411.164429,261.435730 407.078918,255.928085 402.282898,250.721069 
	C403.221466,254.797974 399.315887,259.504211 404.653839,262.963989 
	C405.657074,263.614227 405.352570,266.282196 405.725555,268.448914 
	C400.649597,268.448914 396.098175,268.448914 390.342651,268.448914 
	C395.360016,256.953583 395.789368,245.430252 390.622833,233.895691 
	C398.059265,232.357468 403.775452,232.524155 407.808899,239.011505 
	C410.213654,242.879166 413.295898,246.325592 416.141113,250.049774 
	C420.268341,243.690948 412.069458,239.598526 413.129395,233.207108 
	C416.811890,233.207108 420.404114,233.103455 423.984161,233.266693 
	C425.144104,233.319580 427.132782,233.912567 427.248077,234.535217 
	C427.553253,236.183167 427.222321,238.027863 426.800568,239.707916 
	C426.424194,241.207321 425.084381,242.576401 425.041290,244.028839 
	C424.843842,250.684265 424.952637,257.348785 424.896484,264.447845 
z"/>
<path fill="#F2F5F8" opacity="1.000000" stroke="none" 
	d="
M360.991455,259.632080 
	C360.993652,254.846451 361.554169,250.424805 360.831818,246.223709 
	C360.160553,242.319611 358.121338,238.650681 356.555176,234.538986 
	C364.631836,232.837112 372.141205,231.561340 379.874634,233.590164 
	C383.952789,234.660080 387.593140,236.064850 387.986053,240.946976 
	C388.371979,245.743118 388.645142,250.617661 382.688080,253.025848 
	C385.399597,258.126129 387.974152,262.968719 390.765686,268.219482 
	C379.710968,269.574615 378.382111,268.699219 373.979675,258.433594 
	C373.455444,257.211212 372.703400,256.086548 372.056946,254.916595 
	C371.425995,255.202148 370.795074,255.487701 370.164124,255.773239 
	C371.257233,258.258728 372.488098,260.695404 373.392853,263.247681 
	C373.954834,264.832947 374.022552,266.593475 374.365601,268.586273 
	C368.641052,268.586273 363.544769,268.586273 358.041260,268.586273 
	C357.654755,267.057922 357.226746,265.365479 356.867767,263.945923 
	C358.446259,262.470306 359.718140,261.281281 360.991455,259.632080 
M375.985504,248.045090 
	C376.275909,245.749191 377.160583,243.287521 376.587372,241.232513 
	C376.329498,240.307907 373.160553,240.195297 371.121887,239.664658 
	C371.121887,242.926056 371.121887,245.328537 371.121887,247.998978 
	C372.579315,247.998978 373.842773,247.998978 375.985504,248.045090 
z"/>
<path fill="#EFF2F6" opacity="1.000000" stroke="none" 
	d="
M173.002106,254.983093 
	C173.289474,255.524384 173.576859,256.065674 173.909515,257.238037 
	C174.257996,258.581573 174.561188,259.294037 174.864380,260.006531 
	C174.864380,260.006531 175.026840,260.108673 174.990433,260.615662 
	C174.969635,261.785034 174.955917,262.449677 175.005905,263.109467 
	C175.227631,266.036011 175.058090,268.434723 170.967133,267.988403 
	C165.057861,267.343689 164.131805,266.544830 164.972321,261.927277 
	C164.209396,257.505310 160.955612,257.217499 157.583557,257.854767 
	C155.818802,258.188263 154.231567,259.460999 151.403976,260.899994 
	C153.919037,262.105835 155.176361,262.301483 155.585495,262.996490 
	C156.266037,264.152527 156.853241,265.720337 156.606339,266.937592 
	C156.446976,267.723267 154.755646,268.660400 153.704910,268.720062 
	C149.930801,268.934265 146.137161,268.804077 141.061401,268.804077 
	C143.282867,263.102051 145.134796,258.164368 147.126633,253.283752 
	C149.484756,247.505646 151.835175,241.716446 154.488983,236.073135 
	C155.081436,234.813278 156.819656,233.538391 158.206985,233.300522 
	C164.786499,232.172363 164.808273,232.299377 167.945618,241.049286 
	C168.311691,242.507874 168.643509,243.258850 168.975311,244.009827 
	C168.975311,244.009827 169.005981,244.009674 168.993347,244.379883 
	C169.595016,246.162933 170.209351,247.575745 170.823669,248.988571 
	C170.878418,249.146545 170.933167,249.304535 171.084564,249.934662 
	C171.345673,250.688705 171.575073,250.900208 171.869400,251.041306 
	C171.869400,251.041306 171.964523,251.050217 171.959747,251.449814 
	C172.304016,252.893982 172.653061,253.938538 173.002106,254.983093 
z"/>
<path fill="#EFF2F6" opacity="1.000000" stroke="none" 
	d="
M226.942780,235.324463 
	C228.677338,234.611862 230.396118,233.332779 232.149200,233.283905 
	C240.107773,233.061920 248.076019,233.186691 256.738556,233.186691 
	C257.224091,236.788910 257.702393,240.337219 258.180664,243.885513 
	C257.769684,244.343567 257.358704,244.801605 256.947723,245.259659 
	C252.285721,243.284744 247.623718,241.309845 242.961700,239.334930 
	C242.485550,239.692383 242.009399,240.049835 241.533249,240.407303 
	C242.250336,242.976440 242.245117,246.938889 243.860062,247.776123 
	C246.077972,248.925934 249.523315,247.708115 252.740692,247.484055 
	C252.740692,250.601227 252.740692,253.310883 252.740692,256.338104 
	C250.783295,256.171051 249.018631,256.093018 247.276901,255.850250 
	C245.705154,255.631210 244.158524,255.231903 242.575775,254.906921 
	C241.762772,258.356110 241.188171,261.308167 245.166504,263.314758 
	C246.309677,263.891357 246.437759,266.480499 247.227478,268.697876 
	C240.356995,268.697876 234.573532,268.697876 228.696014,268.252075 
	C228.707809,266.919342 228.813660,266.032440 228.935486,264.814758 
	C228.938400,264.263641 228.925308,264.043243 228.968185,263.424133 
	C230.885437,262.053223 232.337128,261.148224 232.138031,258.417694 
	C231.777344,253.471237 232.106247,248.477997 231.960907,243.509750 
	C231.927078,242.352982 231.375549,241.037674 230.652802,240.116531 
	C229.637390,238.822342 228.239334,237.828369 227.012604,236.475143 
	C227.021576,235.935410 226.995743,235.628799 226.942780,235.324463 
z"/>
<path fill="#E7EEF4" opacity="1.000000" stroke="none" 
	d="
M325.454834,280.091003 
	C361.808838,280.094147 397.709442,280.094147 433.805054,280.094147 
	C433.805054,282.087555 433.805054,283.678467 433.805054,285.559326 
	C396.677521,285.559326 359.708160,285.559326 321.412231,285.559326 
	C322.986603,283.159332 323.994019,281.623627 325.454834,280.091003 
z"/>
<path fill="#EBF0F4" opacity="1.000000" stroke="none" 
	d="
M164.632629,262.055145 
	C164.131805,266.544830 165.057861,267.343689 170.967133,267.988403 
	C175.058090,268.434723 175.227631,266.036011 175.005905,263.109467 
	C174.955917,262.449677 174.969635,261.785034 174.939590,260.697021 
	C175.693573,261.528931 176.461990,262.786499 177.205597,264.003418 
	C182.177048,262.698364 182.342072,259.115936 182.022934,255.069321 
	C181.775436,251.930969 182.284515,248.715591 181.866776,245.613983 
	C181.577545,243.466599 180.158142,241.494705 179.476471,239.369736 
	C178.901093,237.576157 178.660583,235.675156 178.196503,233.462463 
	C184.298676,233.462463 189.854553,233.462463 195.774841,233.462463 
	C195.335159,236.090805 197.767883,239.358551 193.146759,240.311493 
	C192.755112,240.392258 192.292770,241.360855 192.292007,241.917587 
	C192.283630,248.029373 191.543488,254.304047 192.716721,260.192871 
	C193.434952,263.797913 196.763718,262.025635 199.120346,260.044861 
	C201.106949,258.375122 203.559601,257.259857 205.805969,255.899170 
	C206.240051,256.341736 206.674149,256.784271 207.108246,257.226837 
	C206.788742,260.951721 206.469238,264.676636 206.155380,268.335571 
	C191.355484,268.335571 176.950256,268.335571 162.223206,268.335571 
	C161.934372,266.211395 159.696777,263.281006 164.632629,262.055145 
z"/>
<path fill="#EBF0F4" opacity="1.000000" stroke="none" 
	d="
M275.972137,268.808197 
	C270.656036,268.808319 265.833923,268.808319 260.550110,268.808319 
	C259.928009,266.345276 256.861938,263.753052 261.649750,261.890839 
	C261.723328,254.745438 261.796936,247.600052 261.870514,240.454651 
	C257.203857,239.716522 259.776794,236.298492 259.191803,233.562592 
	C264.848389,233.562592 270.254425,233.562592 275.886505,233.562592 
	C277.219086,236.739090 277.989838,239.772461 272.972412,240.428940 
	C272.972412,247.594238 272.972412,254.540222 272.972412,263.264618 
	C275.987396,261.552948 278.068024,260.315582 280.201202,259.176666 
	C282.291473,258.060669 284.435303,257.044952 287.845093,255.340698 
	C287.378815,260.789429 287.063934,264.468628 286.692596,268.808075 
	C283.325958,268.808075 279.896027,268.808075 275.972137,268.808197 
z"/>
<path fill="#E9EDF3" opacity="1.000000" stroke="none" 
	d="
M228.912216,263.822845 
	C228.925308,264.043243 228.938400,264.263641 228.722748,264.656342 
	C228.326584,264.886414 228.159164,264.944122 227.991760,265.001801 
	C227.202148,266.142670 226.412552,267.283539 225.520294,268.572693 
	C220.391693,268.572693 214.985016,268.572693 209.220642,268.572693 
	C209.647842,265.898865 207.228485,262.640381 211.797516,261.731049 
	C211.410614,254.518860 211.180298,247.292770 210.541351,240.102982 
	C210.349930,237.948776 209.017944,235.895935 207.969131,233.175873 
	C214.134766,233.175873 218.776337,233.090988 223.410355,233.240494 
	C224.460052,233.274353 225.483490,234.122208 226.730896,234.959915 
	C226.995743,235.628799 227.021576,235.935410 226.779663,236.800903 
	C225.237396,239.145889 222.995239,240.843704 222.812683,242.739822 
	C222.290741,248.160965 222.315689,253.682953 222.697678,259.125122 
	C222.932739,262.473938 225.155807,264.482300 228.912216,263.822845 
z"/>
<path fill="#C5D2E2" opacity="1.000000" stroke="none" 
	d="
M234.146118,279.311218 
	C235.199539,278.479706 235.964981,277.820465 236.847122,277.415253 
	C238.578583,276.619995 240.374969,275.966095 242.758423,275.006561 
	C242.758423,278.518158 242.758423,282.867920 242.758423,288.585388 
	C239.706314,287.800079 236.643555,286.941284 233.542328,286.256714 
	C232.595474,286.047699 231.257751,285.936127 230.589035,286.435760 
	C227.967041,288.394836 224.965729,289.554169 222.514252,287.243713 
	C221.037094,285.851532 220.030319,282.685791 220.525330,280.756653 
	C221.395554,277.365417 224.532898,276.967194 227.753906,277.912903 
	C228.248138,278.058014 228.916168,277.611237 229.953934,277.305664 
	C230.259674,279.775452 230.526672,281.932495 230.912262,285.047363 
	C232.229111,282.654419 233.070007,281.126373 234.146118,279.311218 
z"/>
<path fill="#C5D2E2" opacity="1.000000" stroke="none" 
	d="
M169.581665,288.122192 
	C167.624008,286.570404 166.018585,285.109467 164.265945,283.514587 
	C163.887741,284.189178 163.452087,285.436554 162.633591,286.335266 
	C160.441925,288.741760 157.350250,289.470703 155.283188,287.073120 
	C153.947006,285.523254 153.359970,281.857300 154.309906,280.238647 
	C155.182022,278.752594 159.883057,277.495178 160.621948,278.279755 
	C165.136810,283.073792 168.697021,275.577545 172.708847,277.794312 
	C173.158722,276.545746 173.608597,275.297180 174.058456,274.048615 
	C174.444763,274.091492 174.831070,274.134369 175.217377,274.177246 
	C175.217377,278.446991 175.217377,282.716736 175.217377,287.482513 
	C173.723663,287.689056 171.828781,287.951050 169.581665,288.122192 
M173.212357,282.376984 
	C172.077408,281.580139 170.942474,280.783325 169.807526,279.986481 
	C169.212585,280.895691 168.047348,281.886688 168.163147,282.693939 
	C168.317291,283.768585 169.468689,284.700195 170.191681,285.693237 
	C171.185654,284.852539 172.179626,284.011810 173.212357,282.376984 
z"/>
<path fill="#C5D2E2" opacity="1.000000" stroke="none" 
	d="
M214.221664,287.193298 
	C212.069717,287.027466 210.015625,286.578766 207.679733,286.068512 
	C205.062622,290.608276 199.012955,281.122650 196.566223,289.666870 
	C196.251892,288.941498 195.937546,288.216125 195.623199,287.490753 
	C196.827942,283.996857 197.950882,280.470703 199.304367,277.035400 
	C199.585449,276.321991 200.748474,275.496674 201.455994,275.539185 
	C202.170212,275.582092 203.037491,276.519745 203.461334,277.276276 
	C204.529449,279.182739 205.385666,281.207947 206.209473,282.938995 
	C208.480942,281.171021 210.264465,279.782867 212.047989,278.394714 
	C212.290405,278.703461 212.532806,279.012207 212.775223,279.320953 
	C211.897980,280.439758 211.020752,281.558563 209.937469,282.940125 
	C211.027817,284.238464 212.165222,285.592773 213.383820,287.043793 
	C214.384628,286.502350 215.452438,285.924652 216.520248,285.346954 
	C216.623520,285.490356 216.726807,285.633759 216.830078,285.777191 
	C216.694901,285.854279 216.565399,285.944336 216.423599,286.006287 
	C215.723999,286.311737 215.021194,286.609802 214.221664,287.193298 
z"/>
<path fill="#C5D2E2" opacity="1.000000" stroke="none" 
	d="
M188.442276,283.644165 
	C187.490921,287.170776 185.376266,289.215820 182.264694,287.974701 
	C180.449768,287.250793 178.083572,284.449463 178.307449,282.927277 
	C178.604004,280.911133 180.930878,278.083313 182.847458,277.650360 
	C186.658554,276.789307 188.185150,279.889221 188.442276,283.644165 
z"/>
<path fill="#E7EEF4" opacity="1.000000" stroke="none" 
	d="
M253.944016,279.037537 
	C254.367538,279.484528 254.791061,279.931488 254.293076,279.405914 
	C257.624725,278.966095 260.334229,278.608398 262.441742,278.330200 
	C261.361755,281.785767 260.498627,284.547516 259.487640,287.782349 
	C258.536652,287.495178 257.373718,287.144012 256.000305,286.134460 
	C252.489670,282.173828 249.718613,285.296631 246.766373,286.219238 
	C246.766373,286.219238 246.979706,286.017975 246.863876,285.868103 
	C246.511566,285.473389 246.275101,285.228577 246.038620,284.983765 
	C246.038620,284.983765 245.992661,284.983551 246.062836,284.600800 
	C246.451080,282.552643 246.769150,280.887268 247.087219,279.221863 
	C247.087219,279.221863 247.080200,279.083069 247.427795,279.145447 
	C248.657349,280.170441 249.914841,282.089478 250.351547,281.918030 
	C251.715729,281.382416 252.769760,280.056885 253.944016,279.037537 
z"/>
<path fill="#C5D2E2" opacity="1.000000" stroke="none" 
	d="
M278.904938,286.947449 
	C277.648895,283.966797 276.404968,281.349915 275.158997,278.728729 
	C277.844147,277.460541 277.844147,277.460541 280.694855,283.140015 
	C281.756989,281.076843 282.757172,279.134033 283.923584,276.868286 
	C285.824371,280.929352 281.674438,290.844330 277.723602,292.037170 
	C278.155090,290.328461 278.536041,288.819855 278.904938,286.947449 
z"/>
<path fill="#C5D2E2" opacity="1.000000" stroke="none" 
	d="
M142.009064,282.876404 
	C141.943146,279.685974 142.962631,277.320801 146.000931,277.682526 
	C147.949448,277.914520 149.723862,279.608795 151.576309,280.647583 
	C151.335663,280.976990 151.095001,281.306427 150.854340,281.635834 
	C148.929596,281.313202 147.004868,280.990570 145.080139,280.667938 
	C145.649780,282.399292 146.219437,284.130676 146.789093,285.862030 
	C148.207886,285.183167 149.626663,284.504333 151.045456,283.825470 
	C151.357254,284.346863 151.669052,284.868225 151.980850,285.389587 
	C150.234604,286.535400 147.909607,289.001923 146.865891,288.544556 
	C144.862961,287.666901 143.587036,285.130249 142.009064,282.876404 
z"/>
<path fill="#C5D2E2" opacity="1.000000" stroke="none" 
	d="
M271.576233,283.653870 
	C269.991699,281.724274 268.404907,280.220764 266.157990,278.091766 
	C267.943756,278.091766 271.021271,277.369873 271.552063,278.226318 
	C273.184204,280.859924 273.841644,284.097534 274.877869,287.100433 
	C274.156921,287.334229 273.435974,287.568024 272.715057,287.801849 
	C272.334686,286.561218 271.954315,285.320587 271.576233,283.653870 
z"/>
<path fill="#C5D2E2" opacity="1.000000" stroke="none" 
	d="
M246.880157,286.530426 
	C249.718613,285.296631 252.489670,282.173828 255.843018,285.825806 
	C253.015472,287.556091 250.200424,289.814514 246.880157,286.530426 
z"/>
<path fill="#C5D2E2" opacity="1.000000" stroke="none" 
	d="
M253.789627,278.741089 
	C252.769760,280.056885 251.715729,281.382416 250.351547,281.918030 
	C249.914841,282.089478 248.657349,280.170441 247.497116,279.150391 
	C249.357635,278.876801 251.496429,278.660706 253.789627,278.741089 
z"/>
<path fill="#EBF0F4" opacity="1.000000" stroke="none" 
	d="
M170.873871,248.647919 
	C170.209351,247.575745 169.595016,246.162933 168.982132,244.391037 
	C169.630402,245.457062 170.277222,246.882172 170.873871,248.647919 
z"/>
<path fill="#C5D2E2" opacity="1.000000" stroke="none" 
	d="
M246.804138,279.393982 
	C246.769150,280.887268 246.451080,282.552643 246.080444,284.585938 
	C246.192291,283.157898 246.356674,281.362000 246.804138,279.393982 
z"/>
<path fill="#EBF0F4" opacity="1.000000" stroke="none" 
	d="
M172.970459,254.637970 
	C172.653061,253.938538 172.304016,252.893982 171.947769,251.496063 
	C172.273315,252.192749 172.606064,253.242813 172.970459,254.637970 
z"/>
<path fill="#070A0C" opacity="1.000000" stroke="none" 
	d="
M227.980255,265.409637 
	C228.159164,264.944122 228.326584,264.886414 228.706757,264.987122 
	C228.813660,266.032440 228.707809,266.919342 228.354797,268.032715 
	C228.061356,267.445282 228.015076,266.631378 227.980255,265.409637 
z"/>
<path fill="#EBF0F4" opacity="1.000000" stroke="none" 
	d="
M174.889755,259.708618 
	C174.561188,259.294037 174.257996,258.581573 173.945099,257.563416 
	C174.261963,257.975372 174.588547,258.693024 174.889755,259.708618 
z"/>
<path fill="#EBF0F4" opacity="1.000000" stroke="none" 
	d="
M168.976562,243.687622 
	C168.643509,243.258850 168.311691,242.507874 167.977692,241.430786 
	C168.309601,241.858261 168.643707,242.611847 168.976562,243.687622 
z"/>
<path fill="#EBF0F4" opacity="1.000000" stroke="none" 
	d="
M171.828918,250.797699 
	C171.575073,250.900208 171.345673,250.688705 171.098389,250.185059 
	C171.342300,250.069824 171.599930,250.266739 171.828918,250.797699 
z"/>
<path fill="#C5D2E2" opacity="1.000000" stroke="none" 
	d="
M246.033813,285.258057 
	C246.275101,285.228577 246.511566,285.473389 246.765823,285.977112 
	C246.532074,286.001465 246.280548,285.766907 246.033813,285.258057 
z"/>
<path fill="#020203" opacity="1.000000" stroke="none" 
	d="
M82.964424,283.658234 
	C81.064003,280.932281 78.363319,278.546692 78.167427,275.970612 
	C77.576744,268.202881 77.798172,260.354858 78.098999,252.553421 
	C78.159813,250.976303 79.929558,248.146484 80.959030,248.124496 
	C94.873940,247.827545 108.797264,247.925186 123.152748,247.925186 
	C123.152748,258.066772 123.341705,267.828339 123.065773,277.576782 
	C122.944389,281.864807 119.860306,283.991974 115.714798,284.015106 
	C104.913506,284.075378 94.111229,283.957977 82.964424,283.658234 
M101.078362,269.535217 
	C102.065269,269.854767 103.052177,270.174347 104.039078,270.493896 
	C103.866844,271.012421 103.694603,271.530945 103.522362,272.049469 
	C100.693794,270.995209 97.865219,269.940948 93.709259,268.391907 
	C95.700562,271.846924 91.520119,275.701691 96.659203,276.743500 
	C99.170891,277.252716 101.893906,276.784393 104.516937,276.663971 
	C108.234512,276.493378 110.986839,274.713196 111.748878,271.023010 
	C112.517204,267.302338 110.074585,265.225464 107.002800,263.744965 
	C106.666161,263.582733 106.500244,263.066284 105.942795,262.265350 
	C107.627579,262.039185 108.933578,261.863861 110.368439,261.671265 
	C110.615707,259.245697 110.830368,257.139923 111.061256,254.875015 
	C108.414078,254.234268 106.091980,253.399948 103.709091,253.153519 
	C99.099968,252.676910 93.280251,257.822357 94.585838,261.775909 
	C95.491638,264.518860 98.635979,266.522522 101.078362,269.535217 
z"/>
<path fill="#070A0C" opacity="1.000000" stroke="none" 
	d="
M89.060928,242.310577 
	C84.323830,243.115524 81.997017,241.563858 80.743927,237.167526 
	C78.979919,230.978699 76.554855,224.968216 74.216881,218.957550 
	C73.128510,216.159485 73.665344,214.693314 76.653229,213.872925 
	C79.679291,213.042053 82.560410,211.686905 85.581902,210.833618 
	C86.558472,210.557816 87.778267,211.143265 88.886795,211.334747 
	C88.241852,212.278717 87.706421,213.329819 86.919083,214.134460 
	C86.225670,214.843124 84.961670,215.095840 84.473923,215.877167 
	C83.877869,216.832001 83.251663,218.498993 83.690552,219.182007 
	C84.227242,220.017212 85.852600,220.492996 87.011963,220.501846 
	C88.461380,220.512924 89.915634,219.890640 91.367859,219.542038 
	C92.190758,222.947128 92.162018,222.886627 88.711456,224.525574 
	C86.657173,225.501328 84.710274,226.703186 82.773903,227.770981 
	C84.330879,231.801956 86.254265,232.529343 89.228683,230.625946 
	C90.308914,229.934677 91.682716,229.523849 92.965393,229.387299 
	C93.883720,229.289536 94.873329,229.861267 95.831131,230.134277 
	C95.386948,231.000381 95.154015,232.140915 94.456467,232.677902 
	C92.784988,233.964615 90.895088,234.967575 89.093353,236.085068 
	C89.042831,236.599289 88.992302,237.113510 88.941780,237.627731 
	C91.753136,238.269928 94.564491,238.912125 97.443176,239.569687 
	C97.164757,242.287033 97.164757,242.287033 89.060928,242.310577 
z"/>
<path fill="#070A0C" opacity="1.000000" stroke="none" 
	d="
M113.466812,226.584229 
	C111.822914,231.298676 110.625031,235.777115 108.853905,240.016037 
	C108.326889,241.277359 106.190910,241.866409 104.792152,242.763504 
	C104.533096,242.425766 104.274040,242.088028 104.014984,241.750290 
	C106.743919,234.175095 109.472847,226.599899 112.299019,218.754761 
	C113.593033,219.282806 114.744484,219.752686 115.892326,220.221085 
	C115.121162,222.337784 114.407310,224.297180 113.466812,226.584229 
z"/>
<path fill="#070A0C" opacity="1.000000" stroke="none" 
	d="
M118.303223,231.275620 
	C119.098671,229.040482 119.570435,227.053131 120.569412,225.380676 
	C121.297432,224.161865 122.720863,223.358429 124.831894,221.484009 
	C123.744476,232.932404 119.272499,241.636841 114.692230,241.891586 
	C115.895218,238.387558 117.050346,235.022949 118.303223,231.275620 
z"/>
<path fill="#020203" opacity="1.000000" stroke="none" 
	d="
M375.545898,248.022034 
	C373.842773,247.998978 372.579315,247.998978 371.121887,247.998978 
	C371.121887,245.328537 371.121887,242.926056 371.121887,239.664658 
	C373.160553,240.195297 376.329498,240.307907 376.587372,241.232513 
	C377.160583,243.287521 376.275909,245.749191 375.545898,248.022034 
z"/>
<path fill="#070A0C" opacity="1.000000" stroke="none" 
	d="
M228.968185,263.424133 
	C225.155807,264.482300 222.932739,262.473938 222.697678,259.125122 
	C222.315689,253.682953 222.290741,248.160965 222.812683,242.739822 
	C222.995239,240.843704 225.237396,239.145889 226.771973,237.031754 
	C228.239334,237.828369 229.637390,238.822342 230.652802,240.116531 
	C231.375549,241.037674 231.927078,242.352982 231.960907,243.509750 
	C232.106247,248.477997 231.777344,253.471237 232.138031,258.417694 
	C232.337128,261.148224 230.885437,262.053223 228.968185,263.424133 
z"/>
<path fill="#070A0C" opacity="1.000000" stroke="none" 
	d="
M173.192993,282.774048 
	C172.179626,284.011810 171.185654,284.852539 170.191681,285.693237 
	C169.468689,284.700195 168.317291,283.768585 168.163147,282.693939 
	C168.047348,281.886688 169.212585,280.895691 169.807526,279.986481 
	C170.942474,280.783325 172.077408,281.580139 173.192993,282.774048 
z"/>
<path fill="#E9EDF3" opacity="1.000000" stroke="none" 
	d="
M100.929260,269.195862 
	C98.635979,266.522522 95.491638,264.518860 94.585838,261.775909 
	C93.280251,257.822357 99.099968,252.676910 103.709091,253.153519 
	C106.091980,253.399948 108.414078,254.234268 111.061256,254.875015 
	C110.830368,257.139923 110.615707,259.245697 110.368439,261.671265 
	C108.933578,261.863861 107.627579,262.039185 105.942795,262.265350 
	C106.500244,263.066284 106.666161,263.582733 107.002800,263.744965 
	C110.074585,265.225464 112.517204,267.302338 111.748878,271.023010 
	C110.986839,274.713196 108.234512,276.493378 104.516937,276.663971 
	C101.893906,276.784393 99.170891,277.252716 96.659203,276.743500 
	C91.520119,275.701691 95.700562,271.846924 93.709259,268.391907 
	C97.865219,269.940948 100.693794,270.995209 103.522362,272.049469 
	C103.694603,271.530945 103.866844,271.012421 104.039078,270.493896 
	C103.052177,270.174347 102.065269,269.854767 100.929260,269.195862 
M102.286858,261.189850 
	C103.632393,261.750580 104.977928,262.311279 107.278748,263.270081 
	C104.595436,258.345642 104.524940,258.321777 102.286858,261.189850 
z"/>
<path fill="#020203" opacity="1.000000" stroke="none" 
	d="
M102.014908,260.798584 
	C104.524940,258.321777 104.595436,258.345642 107.278748,263.270081 
	C104.977928,262.311279 103.632393,261.750580 102.014908,260.798584 
z"/>
</svg>